FFmpeg version SVN-r25716, Copyright (c) 2000-2010 the FFmpeg developers  built on Nov 10 2010 12:23:18 with gcc 4.1.2 20080704 (Red Hat 4.1.2-48)  configuration: --enable-libmp3lame --enable-shared --disable-mmx --arch=x86_64  libavutil     50.33. 0 / 50.33. 0  libavcore      0.12. 1 /  0.12. 1  libavcodec    52.94. 4 / 52.94. 4  libavformat   52.84. 0 / 52.84. 0  libavdevice   52. 2. 2 / 52. 2. 2  libavfilter    1.59. 0 /  1.59. 0  libswscale     0.12. 0 /  0.12. 0[mov,mp4,m4a,3gp,3g2,mj2 @ 0x18a4c4c0] multiple edit list entries, a/v desync might occur, patch welcomeSeems stream 0 codec frame rate differs from container frame rate: 1000.00 (1000/1) -> 10.00 (10/1)Input #0, mov,mp4,m4a,3gp,3g2,mj2, from '/RAID10/data/converted_video_files/25361.mov':  Metadata:    major_brand     : qt      minor_version   : 537199360    compatible_brands: qt    Duration: 00:01:53.91, start: -4.595000, bitrate: 41 kb/s    Stream #0.0(eng): Video: svq3, yuvj420p, 351x499, 40 kb/s, 10 fps, 10 tbr, 1k tbn, 1k tbc[buffer @ 0x18a55320] w:351 h:499 pixfmt:yuvj420p[ffsink @ 0x18a75b40] auto-inserting filter 'auto-inserted scaler 0' between the filter 'src' and the filter 'out'[scale @ 0x18a75e30] w:351 h:499 fmt:yuvj420p -> w:351 h:499 fmt:yuv420p flags:0x4Output #0, flv, to '/RAID10/data/converted_video_files/25361.flv':  Metadata:    encoder         : Lavf52.84.0    Stream #0.0(eng): Video: flv, yuv420p, 351x499, q=2-31, 600 kb/s, 1k tbn, 24 tbcStream mapping:  Stream #0.0 -> #0.0Press [q] to stop encodingframe=   97 fps=  0 q=1.6 size=     196kB time=9.62 bitrate= 166.8kbits/s    frame=  164 fps=158 q=2.0 size=     383kB time=16.33 bitrate= 192.2kbits/s    frame=  235 fps=148 q=2.0 size=     611kB time=23.46 bitrate= 213.4kbits/s    frame=  312 fps=152 q=2.0 size=     831kB time=31.12 bitrate= 218.6kbits/s    frame=  405 fps=144 q=2.0 size=    1110kB time=40.46 bitrate= 224.8kbits/s    frame=  439 fps=143 q=2.0 size=    1188kB time=43.83 bitrate= 222.0kbits/s    frame=  523 fps=147 q=2.0 size=    1459kB time=52.25 bitrate= 228.8kbits/s    frame=  608 fps=148 q=2.0 size=    1654kB time=60.75 bitrate= 223.1kbits/s    frame=  697 fps=153 q=1.6 size=    1894kB time=69.62 bitrate= 222.8kbits/s    frame=  792 fps=157 q=2.0 size=    2098kB time=79.12 bitrate= 217.2kbits/s    frame=  899 fps=161 q=2.0 size=    2381kB time=89.83 bitrate= 217.2kbits/s    frame=  995 fps=164 q=2.0 size=    2669kB time=99.46 bitrate= 219.9kbits/s    frame= 1085 fps=164 q=2.0 size=    3017kB time=108.46 bitrate= 227.8kbits/s    frame= 1139 fps=163 q=2.0 Lsize=    3110kB time=113.83 bitrate= 223.8kbits/s    video:3092kB audio:0kB global headers:0kB muxing overhead 0.582218%